<svg width="18" height="18" viewBox="0 0 18 18" fill="none" xmlns="http://www.w3.org/2000/svg">
<g clip-path="url(#clip0_1_1874)">
<path d="M8.72564 1.44531C4.3337 1.44531 0.769226 5.00979 0.769226 9.40173C0.769226 13.7937 4.3337 17.3581 8.72564 17.3581C13.1176 17.3581 16.6821 13.7937 16.6821 9.40173C16.6821 5.00979 13.1176 1.44531 8.72564 1.44531ZM8.72564 14.1756C8.14217 14.1756 7.66479 13.6982 7.66479 13.1147C7.66479 12.5313 8.14217 12.0539 8.72564 12.0539C9.30911 12.0539 9.7865 12.5313 9.7865 13.1147C9.7865 13.6982 9.30911 14.1756 8.72564 14.1756ZM9.94032 5.94864L9.58494 10.2027C9.54781 10.6482 9.17651 10.993 8.72564 10.993C8.27478 10.993 7.90348 10.6482 7.86635 10.2027L7.51096 5.94864C7.45262 5.23787 8.00956 4.62788 8.72564 4.62788C9.40459 4.62788 9.94563 5.17952 9.94563 5.84786C9.94563 5.87969 9.94563 5.91682 9.94032 5.94864Z" fill="#058BEB"/>
</g>
<defs>
<clipPath id="clip0_1_1874">
<rect width="16.9737" height="16.9737" fill="white" transform="translate(0.238403 0.915039)"/>
</clipPath>
</defs>
</svg>
