<svg width="20" height="21" viewBox="0 0 20 21" fill="none" xmlns="http://www.w3.org/2000/svg">
<path d="M10.0079 18.9338C14.6103 18.9338 18.3413 15.2028 18.3413 10.6004C18.3413 5.99805 14.6103 2.26709 10.0079 2.26709C5.40555 2.26709 1.67459 5.99805 1.67459 10.6004C1.67459 15.2028 5.40555 18.9338 10.0079 18.9338Z" stroke="#030916" stroke-width="1.25" stroke-linecap="round" stroke-linejoin="round"/>
<path d="M7.92459 8.07153C7.92459 7.6738 7.92459 7.47493 8.00771 7.3639C8.08014 7.26715 8.19102 7.20662 8.31157 7.19801C8.44991 7.18813 8.61719 7.29567 8.95176 7.51075L12.8856 10.0396C13.1759 10.2263 13.3211 10.3196 13.3712 10.4382C13.415 10.5419 13.415 10.6589 13.3712 10.7626C13.3211 10.8813 13.1759 10.9746 12.8856 11.1612L8.95176 13.6901C8.61719 13.9052 8.44991 14.0127 8.31157 14.0028C8.19102 13.9942 8.08014 13.9337 8.00771 13.8369C7.92459 13.7259 7.92459 13.5271 7.92459 13.1293V8.07153Z" stroke="#030916" stroke-width="1.25" stroke-linecap="round" stroke-linejoin="round"/>
</svg>
