<svg width="49" height="49" viewBox="0 0 49 49" fill="none" xmlns="http://www.w3.org/2000/svg">
<path d="M24.6643 0.839844C11.4303 0.839844 0.664307 11.6058 0.664307 24.8398C0.664307 38.0739 11.4303 48.8398 24.6643 48.8398C37.8983 48.8398 48.6643 38.0739 48.6643 24.8398C48.6643 11.6058 37.8983 0.839844 24.6643 0.839844ZM32.0783 26.2539L22.0783 36.2538C21.6883 36.6438 21.1763 36.8398 20.6643 36.8398C20.1523 36.8398 19.6402 36.6438 19.2502 36.2538C18.4683 35.4718 18.4683 34.2078 19.2502 33.4258L27.8363 24.8398L19.2503 16.2538C18.4684 15.4719 18.4684 14.2078 19.2503 13.4259C20.0323 12.6439 21.2963 12.6439 22.0783 13.4259L32.0783 23.4259C32.8603 24.2079 32.8603 25.4718 32.0783 26.2539Z" fill="#058BEB"/>
</svg>
