<svg width="49" height="49" viewBox="0 0 49 49" fill="none" xmlns="http://www.w3.org/2000/svg">
<path d="M24.3357 0.839844C37.5697 0.839844 48.3357 11.6058 48.3357 24.8398C48.3357 38.0739 37.5697 48.8398 24.3357 48.8398C11.1017 48.8398 0.335693 38.0739 0.335693 24.8398C0.335693 11.6058 11.1017 0.839844 24.3357 0.839844ZM16.9217 26.2539L26.9217 36.2538C27.3117 36.6438 27.8237 36.8398 28.3357 36.8398C28.8477 36.8398 29.3598 36.6438 29.7498 36.2538C30.5317 35.4718 30.5317 34.2078 29.7498 33.4258L21.1637 24.8398L29.7497 16.2538C30.5316 15.4719 30.5316 14.2078 29.7497 13.4259C28.9677 12.6439 27.7037 12.6439 26.9217 13.4259L16.9217 23.4259C16.1397 24.2079 16.1397 25.4718 16.9217 26.2539Z" fill="#058BEB"/>
</svg>
